<svg width="16" height="16" viewBox="0 0 16 16" fill="none" xmlns="http://www.w3.org/2000/svg">
<path d="M9 5.33333H7" stroke="#24160F" stroke-width="2" stroke-linecap="round" stroke-linejoin="round"/>
<path d="M10.0002 1.33333L9.3335 2.66666H11.3335C11.6871 2.66666 12.0263 2.80714 12.2763 3.05719C12.5264 3.30723 12.6668 3.64637 12.6668 3.99999V13.3333C12.6668 13.6869 12.5264 14.0261 12.2763 14.2761C12.0263 14.5262 11.6871 14.6667 11.3335 14.6667H4.66683C4.31321 14.6667 3.97407 14.5262 3.72402 14.2761C3.47397 14.0261 3.3335 13.6869 3.3335 13.3333V3.99999C3.3335 3.64637 3.47397 3.30723 3.72402 3.05719C3.97407 2.80714 4.31321 2.66666 4.66683 2.66666H6.66683" stroke="#24160F" stroke-width="1.5" stroke-linecap="round" stroke-linejoin="round"/>
<path d="M11.2661 14.6667C11.1127 13.9135 10.7038 13.2365 10.1086 12.7502C9.51335 12.2639 8.76835 11.9983 7.99973 11.9983C7.23112 11.9983 6.48612 12.2639 5.89087 12.7502C5.29563 13.2365 4.88673 13.9135 4.7334 14.6667" stroke="#24160F" stroke-width="1.5" stroke-linecap="round" stroke-linejoin="round"/>
<path d="M6 1.33333L8 5.33333" stroke="#24160F" stroke-width="1.5" stroke-linecap="round" stroke-linejoin="round"/>
<path d="M8 12C9.10457 12 10 11.1046 10 10C10 8.89543 9.10457 8 8 8C6.89543 8 6 8.89543 6 10C6 11.1046 6.89543 12 8 12Z" stroke="#24160F" stroke-width="1.5" stroke-linecap="round" stroke-linejoin="round"/>
</svg>
