<svg width="16" height="16" viewBox="0 0 16 16" fill="none" xmlns="http://www.w3.org/2000/svg">
<path d="M7.66207 2.1875C6.76207 2.3125 5.9652 2.95625 5.65582 3.80313C5.2402 4.95313 5.69645 6.20938 6.75895 6.83125C6.8652 6.89375 7.0777 6.9875 7.23395 7.04063C7.5027 7.13438 7.53707 7.14062 7.99957 7.14062C8.4652 7.14062 8.49332 7.13438 8.78082 7.0375C9.4527 6.80313 9.95895 6.35625 10.2527 5.73438C10.4089 5.4 10.4652 5.17188 10.4871 4.79688C10.5277 4.05938 10.2808 3.43125 9.73707 2.89063C9.4902 2.64375 9.40895 2.58438 9.12457 2.44688C8.94332 2.35938 8.70582 2.26563 8.59332 2.24063C8.3277 2.17813 7.90895 2.15313 7.66207 2.1875Z" fill="#24160F"/>
<path d="M3.2622 3.54375C3.15908 3.56875 2.9747 3.63437 2.85595 3.69062C2.5622 3.83125 2.1747 4.21562 2.0372 4.5C1.68408 5.23437 1.81533 6.0625 2.3747 6.625C2.73095 6.97812 3.16533 7.15625 3.68095 7.15625C4.16845 7.15625 4.57783 6.9875 4.92783 6.64375L5.15595 6.42187L5.01533 6.14062C4.6872 5.475 4.5997 4.80937 4.73408 3.98125C4.75595 3.85 4.75595 3.85 4.60908 3.7625C4.21845 3.53437 3.68408 3.44687 3.2622 3.54375Z" fill="#24160F"/>
<path d="M11.9842 3.53127C11.8061 3.56877 11.5561 3.66877 11.3873 3.76565C11.2436 3.85002 11.2436 3.85315 11.2654 3.98127C11.3998 4.8094 11.3123 5.46877 10.9842 6.14065L10.8467 6.4219L11.0717 6.64377C11.7842 7.34377 12.9123 7.3344 13.6248 6.62502C13.8623 6.3844 14.0592 6.03127 14.1217 5.72502C14.1717 5.49065 14.1654 5.10627 14.1092 4.89065C13.9529 4.27815 13.4623 3.76877 12.8467 3.57502C12.6717 3.51877 12.1561 3.49377 11.9842 3.53127Z" fill="#24160F"/>
<path d="M3.12481 7.55938C2.40606 7.71875 1.81231 8.11875 1.4123 8.71563C1.17168 9.07188 1.08105 9.31563 0.968555 9.87813C0.79043 10.7719 0.79668 10.8344 1.06543 11.1C1.48106 11.5063 2.35293 11.7875 3.29356 11.8188L3.60606 11.8281L3.73731 10.9063C3.90293 9.7625 3.97793 9.46875 4.21856 8.98438C4.40606 8.60313 4.58731 8.3375 4.87168 8.03438C4.95918 7.94063 5.02793 7.85938 5.02168 7.85625C5.01856 7.85313 4.94356 7.81563 4.85293 7.76875C4.37481 7.52813 3.65606 7.44063 3.12481 7.55938Z" fill="#24160F"/>
<path d="M7.13751 7.54376C6.63751 7.63751 6.29688 7.77501 5.89376 8.04376C5.27501 8.45626 4.81251 9.08751 4.60938 9.79689C4.56251 9.96251 4.45626 10.6094 4.34376 11.3781C4.13438 12.8469 4.13438 12.8344 4.35001 13.0406C4.58126 13.2625 5.20313 13.5188 5.79688 13.6375C7.20626 13.9188 9.25626 13.8875 10.5094 13.5625C10.9031 13.4625 11.2531 13.3219 11.4844 13.1719C11.675 13.05 11.7313 12.9875 11.7969 12.8344C11.8438 12.7219 11.8375 12.6563 11.6563 11.3938C11.5531 10.6656 11.4469 9.99064 11.4219 9.89376C11.1813 8.97501 10.525 8.18751 9.66251 7.79064C9.53438 7.73126 9.29376 7.64689 9.12813 7.60314C8.85313 7.52814 8.76563 7.52189 8.09376 7.51251C7.57501 7.50626 7.29376 7.51564 7.13751 7.54376Z" fill="#24160F"/>
<path d="M11.8998 7.53125C11.6717 7.57188 11.4092 7.65313 11.1811 7.75625L10.9717 7.85L11.1936 8.10625C11.6123 8.58438 11.9061 9.12813 12.0467 9.675C12.0904 9.84688 12.1873 10.4 12.2623 10.9063L12.3936 11.8281L12.7061 11.8188C13.0967 11.8063 13.7154 11.7063 14.0248 11.6063C14.3873 11.4875 14.7373 11.2906 14.9404 11.0938C15.2029 10.8375 15.2092 10.7656 15.0342 9.88438C14.9811 9.62813 14.8967 9.31563 14.8467 9.1875C14.6467 8.69375 14.1904 8.15938 13.7436 7.89688C13.2061 7.57813 12.4811 7.43438 11.8998 7.53125Z" fill="#24160F"/>
</svg>
