<svg width="15" height="15" viewBox="0 0 15 15" fill="none" xmlns="http://www.w3.org/2000/svg">
<circle cx="7.25" cy="7.25" r="6.5" stroke="#24160F" stroke-width="1.5"/>
<path d="M9.67791 4.63001C9.65569 4.63794 9.61285 4.6554 9.5827 4.66968C9.55254 4.68555 8.78607 5.43774 7.87994 6.34229L6.23431 7.98792L5.60272 7.35791C5.17108 6.92786 4.95049 6.71838 4.9013 6.69299C4.79339 6.63904 4.62042 6.63269 4.49664 6.6803C4.4157 6.71045 4.37444 6.74377 4.20941 6.90723C3.98089 7.13733 3.94439 7.19922 3.9428 7.37695C3.93963 7.60547 3.88091 7.53406 5.01873 8.67664C5.71063 9.3717 6.05657 9.70654 6.09942 9.72717C6.18035 9.76526 6.28826 9.76526 6.3692 9.72717C6.41363 9.70654 7.05792 9.07178 8.46551 7.66101C10.7348 5.38855 10.5602 5.58057 10.5571 5.3457C10.5555 5.16797 10.519 5.10608 10.2905 4.87598C10.1286 4.71411 10.0842 4.6792 10.0064 4.65064C9.91277 4.61572 9.75884 4.6062 9.67791 4.63001Z" fill="#24160F"/>
</svg>
