<svg width="24" height="24" viewBox="0 0 24 24" fill="none" xmlns="http://www.w3.org/2000/svg">
<g clip-path="url(#clip0_338_87)">
<path d="M11.6119 3.25894C10.5213 4.29063 9.67153 5.5113 9.04898 6.94136L8.80905 7.48478C8.77224 7.56855 8.67909 7.59817 8.6082 7.54914C7.51306 6.80857 5.81808 6.11907 5.07739 6.11397C4.88199 6.11397 4.85472 6.12929 4.77293 6.2774C4.56389 6.65535 4.30033 7.77386 4.1731 8.79534C4.10493 9.34183 4.10493 11.0681 4.16855 11.5022C4.19582 11.6708 4.21399 11.8138 4.20945 11.8189C4.20491 11.824 4.00951 11.8547 3.77321 11.8853C2.5781 12.0385 1.45569 12.3909 1.10579 12.7229C0.942197 12.8761 0.942197 12.8557 1.0967 13.7444C1.28755 14.822 1.73288 16.0223 2.30999 16.9927C3.92317 19.7098 6.59514 21.2011 9.43069 20.9764C10.0623 20.9254 10.7576 20.7926 11.2756 20.624C11.5028 20.5525 11.6301 20.5372 11.7755 20.5678C11.8845 20.5934 12.0663 20.5934 12.1799 20.5678C12.339 20.5372 12.4753 20.5525 12.8025 20.6496C14.4293 21.1399 16.0061 21.1143 17.4739 20.5832C20.2231 19.5872 22.3498 16.8956 22.8996 13.7086C23.0496 12.8251 23.0496 12.8659 22.945 12.7484C22.6315 12.396 21.5727 12.0743 20.0231 11.8547C19.805 11.8291 19.805 11.824 19.8323 11.6657C19.8914 11.2979 19.9141 9.54612 19.8641 9.03028C19.7641 7.97816 19.4279 6.54298 19.2143 6.24165C19.1007 6.07821 18.8689 6.07311 18.3009 6.21611C17.4875 6.4153 16.1924 7.00776 15.4835 7.49806C15.3563 7.58489 15.2427 7.63596 15.2381 7.61553C15.229 7.59 15.0927 7.26823 14.9337 6.90561C14.4338 5.75134 13.7613 4.71965 12.9252 3.81565C12.4326 3.28039 12.1767 3.04801 12.0377 3.00562C12.0104 2.99745 11.9818 2.99796 11.955 3.00868C11.8777 3.03984 11.745 3.13535 11.6119 3.25894ZM12.4844 4.25999C14.9609 7.00265 15.9107 10.966 14.97 14.6586C14.5111 16.4615 13.6931 17.9886 12.4571 19.3676L12.0972 19.768C12.0422 19.8293 11.9536 19.8293 11.8986 19.768L11.5387 19.3676C10.5208 18.2389 9.81195 17.0386 9.29846 15.5728C7.94884 11.7219 8.80314 7.29888 11.4615 4.31617C11.7341 4.01484 11.975 3.76457 11.9977 3.76457C12.0159 3.76457 12.2344 3.9893 12.4844 4.25999ZM5.64995 6.93115C6.54515 7.18651 7.57213 7.65639 8.27193 8.13138L8.44507 8.25242C8.49869 8.28971 8.52368 8.36223 8.50641 8.43016L8.44915 8.65744C7.64029 11.7474 8.08108 15.1489 9.63972 17.8354C9.97145 18.4074 10.1305 18.6424 10.6031 19.2501C10.753 19.4442 10.8621 19.5974 10.8485 19.5974C10.753 19.5974 10.0714 19.2808 9.63518 19.0356C7.2813 17.7077 5.60905 15.3839 4.97741 12.5493C4.73657 11.4869 4.65932 9.99046 4.7911 8.88727C4.88199 8.09563 5.16827 6.829 5.25461 6.829C5.26824 6.829 5.44546 6.87496 5.64995 6.93115ZM18.9325 7.41635C19.1916 8.43271 19.2415 8.87706 19.2461 10.1488C19.2461 11.3184 19.2188 11.635 19.0371 12.4726C18.6553 14.2245 17.9101 15.7414 16.7968 17.0335C16.0788 17.866 15.3108 18.4993 14.3611 19.0356C13.9249 19.2808 13.2432 19.5974 13.1478 19.5974C13.1342 19.5974 13.2432 19.4442 13.3932 19.2501C14.2384 18.1623 14.7701 17.2174 15.1972 16.0376C16.0515 13.6882 16.1788 11.063 15.5471 8.65744L15.4908 8.43322C15.4731 8.36376 15.4999 8.28971 15.5553 8.25293L15.8107 8.0849C16.2924 7.76824 17.0376 7.38008 17.4966 7.21154C17.9169 7.05423 18.4281 6.89693 18.6376 6.85453C18.7008 6.84177 18.7635 6.87803 18.7908 6.94391C18.8289 7.03585 18.8757 7.19162 18.9325 7.41635ZM4.49119 13.1366C4.77747 14.3011 5.31368 15.5013 5.99985 16.5279C6.40883 17.1357 7.26767 18.1163 7.74935 18.5351C8.42189 19.1071 9.33527 19.6945 10.0532 20.006C10.4168 20.1644 10.4168 20.1695 9.72606 20.2665C9.4625 20.3023 9.03081 20.3125 8.61274 20.2971C7.49942 20.2461 6.67239 20.006 5.60451 19.4187C4.86835 19.0152 4.27307 18.5198 3.65506 17.7996C2.76441 16.7577 2.09187 15.3685 1.7556 13.8823C1.58292 13.1009 1.5602 13.157 2.09187 12.9681C2.3418 12.8812 2.75532 12.7587 3.00525 12.7025C3.4015 12.6111 3.9936 12.5329 4.22626 12.535C4.28579 12.535 4.33805 12.5779 4.35759 12.6412C4.39031 12.7474 4.43984 12.9328 4.49119 13.1366ZM20.9956 12.7025C21.6045 12.8404 22.3588 13.1162 22.3588 13.1928C22.3588 13.2285 22.327 13.4175 22.2907 13.6167C22.0862 14.7046 21.5182 16.1397 20.9501 16.9927C19.8459 18.6526 18.3463 19.7302 16.565 20.1592C15.9788 20.3023 14.7883 20.3533 14.1384 20.2614C13.884 20.2256 13.6795 20.1848 13.6795 20.1644C13.6795 20.1439 13.7567 20.098 13.8522 20.0622C14.193 19.9294 15.2109 19.3421 15.6108 19.0509C16.615 18.3104 17.5057 17.3349 18.2327 16.1755C18.7644 15.3277 19.3324 13.9538 19.546 12.9885L19.6173 12.6632C19.6337 12.5886 19.6955 12.5375 19.7641 12.5431L20.1049 12.5697C20.3594 12.585 20.7593 12.6463 20.9956 12.7025Z" fill="#36DAFF" stroke="#36DAFF" stroke-width="0.75" stroke-miterlimit="10"/>
</g>
<defs>
<clipPath id="clip0_338_87">
<rect width="24" height="24" fill="white"/>
</clipPath>
</defs>
</svg>
