<svg width="24" height="24" viewBox="0 0 24 24" fill="none" xmlns="http://www.w3.org/2000/svg">
<g clip-path="url(#clip0_10_149)">
<path d="M11.816 2.66015C11.9274 2.61568 12.0433 2.61604 12.1451 2.64648H12.1471C12.3067 2.69515 12.4615 2.82092 12.6012 2.94824C12.7563 3.08969 12.9523 3.29159 13.1998 3.56054C14.0645 4.49545 14.7605 5.56289 15.277 6.75488C15.3283 6.87186 15.3759 6.98836 15.4205 7.09179C16.184 6.60006 17.406 6.04885 18.2115 5.85156C18.4963 5.77993 18.7394 5.73395 18.9381 5.73925C19.1591 5.74517 19.3751 5.81826 19.5201 6.02441C19.61 6.15129 19.686 6.34804 19.7486 6.54003C19.8161 6.7467 19.8837 6.99874 19.9469 7.26953C20.0731 7.81021 20.186 8.4484 20.2379 8.99414L20.2545 9.25683C20.2674 9.5661 20.2694 9.99856 20.2643 10.4082C20.2592 10.8141 20.246 11.2323 20.2252 11.5068C20.9471 11.6144 21.5681 11.7442 22.0572 11.8936C22.3184 11.9733 22.5492 12.0602 22.7408 12.1553C22.9278 12.248 23.1011 12.3596 23.2252 12.499C23.2279 12.502 23.3013 12.5749 23.3434 12.665C23.3935 12.7727 23.3962 12.8784 23.3922 12.96C23.385 13.1041 23.3408 13.3495 23.2691 13.7715V13.7725C22.6993 17.0752 20.493 19.8881 17.6021 20.9356H17.6012C16.0515 21.4963 14.3915 21.5204 12.6939 21.0088V21.0078C12.3816 20.9153 12.3173 20.9237 12.2506 20.9365L12.2496 20.9346C12.0862 20.9688 11.8598 20.9699 11.6979 20.9336V20.9346C11.6447 20.9234 11.5897 20.9173 11.3912 20.9795L11.3922 20.9805C10.9798 21.1146 10.4688 21.2255 9.9625 21.2949L9.46055 21.3506C6.46442 21.588 3.66427 20.0078 1.98789 17.1846C1.3879 16.1757 0.925987 14.9323 0.727151 13.8096V13.8086C0.688912 13.5886 0.659166 13.4183 0.63926 13.2881C0.619996 13.162 0.606165 13.0497 0.607033 12.9541C0.608034 12.8481 0.626897 12.7352 0.693947 12.626C0.747261 12.5392 0.825015 12.4719 0.849221 12.4492H0.850197C0.97929 12.3274 1.15472 12.2233 1.34141 12.1348C1.53427 12.0433 1.76193 11.9569 2.01035 11.8789C2.50718 11.7229 3.10833 11.5928 3.7252 11.5137L3.7916 11.5039C3.76004 11.2334 3.74616 10.7031 3.74668 10.1904C3.74725 9.63786 3.76407 9.04817 3.80137 8.74902C3.86667 8.22481 3.96664 7.67591 4.07774 7.208C4.18544 6.75445 4.31291 6.33439 4.44492 6.0957C4.47891 6.03413 4.55257 5.89155 4.70469 5.80957C4.84397 5.73456 5.00043 5.73925 5.07774 5.73925H5.07969C5.52712 5.74234 6.1939 5.94079 6.85117 6.208C7.4319 6.44411 8.04976 6.75172 8.57676 7.08105L8.70567 6.79003C9.34752 5.31614 10.2258 4.05366 11.3541 2.98632L11.357 2.98437C11.4964 2.855 11.6709 2.71928 11.815 2.66113L11.816 2.66015ZM19.9127 13.0684V13.0693C19.6896 14.0776 19.1042 15.4918 18.5504 16.375C17.8007 17.5704 16.8789 18.5817 15.8336 19.3525L15.8316 19.3545C15.6182 19.5098 15.2567 19.7316 14.9117 19.9307C15.0566 19.9313 15.208 19.9303 15.36 19.9238C15.8024 19.9051 16.2182 19.8578 16.4762 19.7949H16.4772C18.159 19.3899 19.5819 18.3731 20.6383 16.7852C21.1755 15.9785 21.725 14.5925 21.9215 13.5498L21.9488 13.3916C21.8994 13.3715 21.8426 13.3467 21.7779 13.3232C21.526 13.2321 21.2001 13.1334 20.9127 13.0684L20.9088 13.0674C20.6924 13.0159 20.3142 12.9583 20.0826 12.9443L20.0758 12.9434L19.942 12.9326L19.9127 13.0684ZM4.04453 12.9199C3.78895 12.9419 3.3853 13.0001 3.08946 13.0684H3.0875C2.85464 13.1207 2.45542 13.2389 2.21543 13.3223L2.21446 13.3213C2.13187 13.3506 2.07599 13.3733 2.03379 13.3887C2.05029 13.4818 2.0787 13.6054 2.12168 13.7998L2.18613 14.0674C2.52768 15.3986 3.14646 16.6272 3.94004 17.5557L4.16074 17.8037C4.67466 18.3606 5.17969 18.7582 5.78477 19.0898H5.78574C6.80755 19.6518 7.57929 19.8746 8.63047 19.9229H8.62949C8.78365 19.9285 8.93746 19.9282 9.08164 19.9268C8.53198 19.6071 7.96495 19.2103 7.50645 18.8203L7.50352 18.8184C6.99481 18.376 6.1147 17.3698 5.68906 16.7373L5.68809 16.7363C4.97906 15.6755 4.42478 14.4358 4.12754 13.2275C4.09873 13.1132 4.06846 13.0079 4.04453 12.9199ZM11.7408 4.56445L11.7418 4.56542C9.17626 7.44403 8.3474 11.724 9.65293 15.4492C10.1503 16.8687 10.8334 18.0254 11.817 19.1162L11.818 19.1172L11.9977 19.3174L12.1783 19.1172L12.3971 18.8652C13.4707 17.5978 14.1908 16.2013 14.607 14.5664C15.5178 10.9911 14.5952 7.15798 12.2057 4.51171V4.51074C12.1316 4.43054 12.0596 4.35617 11.9967 4.29003C11.9211 4.37026 11.8323 4.46333 11.7408 4.56445ZM18.5055 7.27343C18.2725 7.33879 17.9306 7.44947 17.6285 7.5625L17.6256 7.56347C17.199 7.7202 16.48 8.0942 16.0172 8.39843L15.8893 8.48144L15.9098 8.5625L16.023 9.02929C16.542 11.3786 16.3752 13.8961 15.5504 16.165C15.2229 17.0695 14.8331 17.8406 14.3014 18.6338C15.1546 18.135 15.8543 17.552 16.5123 16.7891L16.7096 16.5537C17.672 15.3634 18.3244 13.9808 18.6705 12.3926C18.8447 11.5898 18.8707 11.3013 18.8707 10.1504L18.857 9.34863C18.8301 8.66043 18.7564 8.24417 18.5689 7.50878V7.50781C18.5453 7.41419 18.5238 7.33673 18.5055 7.27343ZM5.39024 7.64355C5.29853 8.05022 5.20717 8.55101 5.16367 8.92968V8.93164C5.05275 9.86026 5.09663 11.0893 5.26426 12.0654L5.34336 12.4668V12.4678C5.94144 15.1517 7.50281 17.3442 9.68614 18.6279C9.56979 18.4506 9.45603 18.2666 9.31504 18.0234C7.70528 15.2487 7.25345 11.745 8.08653 8.5625L8.10801 8.47363L8.06113 8.4414C7.3984 7.99165 6.41024 7.53868 5.55039 7.29296L5.48203 7.27441C5.45397 7.37759 5.42193 7.50303 5.39024 7.64355Z" fill="#FF442B"/>
</g>
<defs>
<clipPath id="clip0_10_149">
<rect width="24" height="24" fill="white"/>
</clipPath>
</defs>
</svg>
