<svg width="32" height="32" viewBox="0 0 32 32" fill="none" xmlns="http://www.w3.org/2000/svg">
<path d="M24.9375 0.131252C21.3625 0.662502 18.3813 2.24375 16.2313 4.75C15.7 5.36875 14.8563 6.55625 13.9063 8.01875C12.6063 10.0313 10.5063 14.1313 9.56251 16.5C9.42501 16.8438 9.11251 17.5188 8.87501 18.0063C7.50001 20.7438 6.16876 23.95 4.79376 27.8125C4.26876 29.3063 4.23126 29.4375 4.23126 29.9063C4.22501 30.5188 4.38126 30.8813 4.82501 31.3313C5.26876 31.775 5.71876 31.9625 6.34376 31.9688C6.91876 31.9688 7.22501 31.8438 7.55001 31.4688C7.81876 31.1688 7.86876 31.0563 8.28126 29.875C9.12501 27.4375 10.1 24.9188 10.9875 22.875C11.2438 22.275 11.475 21.7625 11.4938 21.7375C11.5125 21.7125 11.9063 22.5313 12.3688 23.55C14.3375 27.8938 15.725 30.7688 16.0125 31.1C16.8375 32.0375 18.5188 31.6688 19.1188 30.4188C19.3625 29.9063 19.4063 29.5938 19.2875 29.1438C19.2375 28.9438 18.7938 27.9375 18.2938 26.9063C16.7 23.5875 14.8188 19.4375 14.8625 19.325C14.8813 19.275 15.0188 19.25 15.275 19.25C15.7938 19.25 22.0125 18.0875 22.3625 17.925C22.6438 17.7938 22.925 17.4438 23.05 17.0688C23.3063 16.325 22.8625 14.65 22.0625 13.3438C21.625 12.625 21.1375 12.0125 20.3688 11.2188C19.8688 10.7 19.5938 10.3563 19.475 10.1063C19.2875 9.71875 18.5563 8.9 17.9813 8.44375L17.6375 8.16875L17.8 7.9125C18.2938 7.15 19.0875 6.25625 19.775 5.69375C21.5438 4.25 23.4875 3.49375 26.4 3.125C27.0375 3.04375 27.2188 2.96875 27.4875 2.6625C28.1625 1.89375 27.6688 0.443752 26.625 0.106253C26.2188 -0.0249977 25.9313 -0.0187473 24.9375 0.131252ZM18.45 13.8C18.7375 14.1188 19.125 14.65 19.3375 15.0125L19.5063 15.3L19.175 15.3688C18.1875 15.5625 16.4813 15.875 16.4625 15.8563C16.4063 15.8 18.0938 13.5625 18.1938 13.5625C18.2188 13.5625 18.3313 13.6688 18.45 13.8Z" fill="#36DAFF"/>
<path d="M21.8 5.4938C20.625 5.8688 19.875 6.8813 19.875 8.0938C19.875 8.8563 20.125 9.45005 20.6813 10C21.1 10.4188 21.5813 10.6688 22.1562 10.7625C23.9688 11.0625 25.5563 9.4563 25.25 7.6313C24.9813 6.0313 23.325 5.0063 21.8 5.4938Z" fill="#36DAFF"/>
</svg>
