<svg width="32" height="32" viewBox="0 0 32 32" fill="none" xmlns="http://www.w3.org/2000/svg">
<path d="M23.4614 17.0241C23.9616 17.5243 24.64 17.8053 25.3474 17.8053C26.0548 17.8053 26.7332 17.5243 27.2334 17.0241C27.7336 16.5239 28.0146 15.8455 28.0146 15.1381C28.0146 14.4307 27.7336 13.7523 27.2334 13.2521L24.876 10.8961C25.3762 11.3961 26.0546 11.677 26.7618 11.6768C27.112 11.6768 27.4588 11.6077 27.7823 11.4737C28.1058 11.3396 28.3998 11.1431 28.6474 10.8954C28.8949 10.6478 29.0913 10.3537 29.2253 10.0302C29.3592 9.7066 29.4282 9.35982 29.4281 9.00962C29.428 8.65942 29.359 8.31266 29.2249 7.98914C29.0909 7.66562 28.8944 7.37168 28.6467 7.12409L24.876 3.35342C24.376 2.85323 23.6978 2.57215 22.9905 2.57202C22.2832 2.5719 21.6049 2.85274 21.1047 3.35276C20.6045 3.85278 20.3234 4.53102 20.3233 5.23829C20.3232 5.94555 20.604 6.62389 21.104 7.12409L18.748 4.76676C18.5004 4.51908 18.2063 4.32262 17.8827 4.18858C17.5591 4.05454 17.2123 3.98555 16.862 3.98555C16.5118 3.98555 16.1649 4.05454 15.8413 4.18858C15.5177 4.32262 15.2237 4.51908 14.976 4.76676C14.7284 5.01443 14.5319 5.30846 14.3979 5.63206C14.2638 5.95566 14.1948 6.30249 14.1948 6.65276C14.1948 7.00302 14.2638 7.34985 14.3979 7.67345C14.5319 7.99705 14.7284 8.29108 14.976 8.53876L23.4614 17.0241Z" stroke="white" stroke-width="3" stroke-linecap="round" stroke-linejoin="round"/>
<path d="M3.33331 28.6667L5.19998 26.8" stroke="white" stroke-width="3" stroke-linecap="round" stroke-linejoin="round"/>
<path d="M26.8 5.19992L28.6667 3.33325" stroke="white" stroke-width="3" stroke-linecap="round" stroke-linejoin="round"/>
<path d="M7.12403 28.6467C7.62405 29.1469 8.3023 29.428 9.00956 29.4281C9.35976 29.4282 9.70654 29.3592 10.0301 29.2253C10.3537 29.0913 10.6477 28.8949 10.8954 28.6474C11.143 28.3998 11.3395 28.1058 11.4736 27.7823C11.6077 27.4588 11.6767 27.112 11.6768 26.7618C11.6768 26.4116 11.6079 26.0649 11.474 25.7413C11.34 25.4177 11.1436 25.1237 10.896 24.876L13.252 27.2334C13.7522 27.7336 14.4306 28.0146 15.138 28.0146C15.8454 28.0146 16.5238 27.7336 17.024 27.2334C17.5242 26.7332 17.8052 26.0548 17.8052 25.3474C17.8052 24.64 17.5242 23.9616 17.024 23.4614L8.5387 14.976C8.29102 14.7284 7.99699 14.5319 7.67339 14.3979C7.34979 14.2638 7.00296 14.1948 6.6527 14.1948C6.30243 14.1948 5.9556 14.2638 5.632 14.3979C5.3084 14.5319 5.01437 14.7284 4.7667 14.976C4.51902 15.2237 4.32256 15.5177 4.18852 15.8413C4.05448 16.1649 3.98549 16.5118 3.98549 16.862C3.98549 17.2123 4.05448 17.5591 4.18852 17.8827C4.32256 18.2063 4.51902 18.5004 4.7667 18.748L7.12403 21.104C6.62383 20.604 5.94549 20.3232 5.23822 20.3233C4.53096 20.3234 3.85272 20.6045 3.3527 21.1047C2.85267 21.6049 2.57184 22.2832 2.57196 22.9905C2.57209 23.6978 2.85316 24.376 3.35336 24.876L7.12403 28.6467Z" stroke="white" stroke-width="3" stroke-linecap="round" stroke-linejoin="round"/>
<path d="M12.8 19.2L19.2 12.8" stroke="white" stroke-width="3" stroke-linecap="round" stroke-linejoin="round"/>
</svg>
