<svg width="32" height="32" viewBox="0 0 32 32" fill="none" xmlns="http://www.w3.org/2000/svg">
<path d="M13 0.0688181C9.46249 0.356318 7.29999 1.46882 6.31249 3.52507C5.02499 6.20632 5.81874 10.3626 8.08749 12.8001C9.66874 14.4938 11.9437 15.2688 14.3125 14.9126C15.9187 14.6688 17.2937 13.9376 18.3312 12.7751L18.5625 12.5126L18.075 12.0251C17.5187 11.4626 17.2437 10.9813 17.0625 10.2751C16.9062 9.66257 16.9062 9.08757 17.0625 8.47507C17.2375 7.79382 17.525 7.28757 18.0312 6.77507C18.5562 6.24382 19.1125 5.91882 19.8062 5.74382C20.275 5.62507 20.4562 5.61882 21.8625 5.64382C23.375 5.66882 23.5187 5.68132 24.275 5.91257C24.3875 5.95007 24.3937 5.92507 24.35 5.52507C24.2812 4.81882 24.075 4.13132 23.7437 3.45632C22.8375 1.61882 20.9375 0.537568 17.9375 0.156319C17 0.0313187 14.0562 -0.0186815 13 0.0688181Z" fill="#EE0841"/>
<path d="M20.0812 7.61875C19.4625 7.83125 19.025 8.3125 18.875 8.95C18.675 9.775 19.1125 10.6438 19.9375 11.0688C20.1625 11.1875 20.3437 11.2188 20.8875 11.2375L21.5562 11.2625L21.3937 11.5875C20.7375 12.9063 19.5812 14.3188 18.5125 15.1188C15.9125 17.0688 12.3812 17.425 9.39998 16.0313C8.21248 15.4813 6.93748 14.4438 6.14373 13.3875C5.94998 13.125 5.76248 12.875 5.73123 12.8438C5.69998 12.8063 5.68748 13.5938 5.70623 14.7188C5.73123 16.3688 5.75623 16.75 5.86873 17.2813C6.14998 18.625 6.63748 19.9875 7.46873 21.7313L7.89373 22.625H15.5687H23.2375L23.7 21.8875C25.3187 19.3438 25.9875 17.8938 26.2187 16.475C26.35 15.6625 26.35 11.1 26.2187 10.475C26.0687 9.775 25.7312 9.1625 25.1875 8.625C24.65 8.08125 24.1625 7.8 23.4625 7.625C22.7812 7.45 20.575 7.44375 20.0812 7.61875Z" fill="#EE0841"/>
<path d="M8.5 27.875C8.5 31.1375 8.50625 31.2625 8.625 31.5C8.70625 31.6625 8.8375 31.7938 9 31.875C9.24375 32 9.35625 32 15.5312 32C21.7063 32 21.8188 32 22.0625 31.875C22.225 31.7938 22.3562 31.6625 22.4375 31.5C22.5563 31.2625 22.5625 31.1375 22.5625 27.875V24.5H15.5312H8.5V27.875ZM18.3125 27.4375C18.5938 27.5812 18.8125 27.9375 18.8125 28.25C18.8125 28.5625 18.5938 28.9188 18.3125 29.0625C18.0813 29.1812 17.95 29.1875 15.525 29.1875C13.0125 29.1875 12.9813 29.1875 12.7375 29.05C12.1063 28.6937 12.1 27.8375 12.725 27.4625L12.9688 27.3125H15.5188C17.95 27.3125 18.0813 27.3187 18.3125 27.4375Z" fill="#EE0841"/>
</svg>
