<svg width="32" height="32" viewBox="0 0 32 32" fill="none" xmlns="http://www.w3.org/2000/svg">
<path d="M24.6667 28.0001C27.244 28.0001 29.3333 25.9107 29.3333 23.3334C29.3333 20.7561 27.244 18.6667 24.6667 18.6667C22.0893 18.6667 20 20.7561 20 23.3334C20 25.9107 22.0893 28.0001 24.6667 28.0001Z" stroke="#0BD938" stroke-width="3" stroke-linecap="round" stroke-linejoin="round"/>
<path d="M7.33334 28.0001C9.91067 28.0001 12 25.9107 12 23.3334C12 20.7561 9.91067 18.6667 7.33334 18.6667C4.75601 18.6667 2.66667 20.7561 2.66667 23.3334C2.66667 25.9107 4.75601 28.0001 7.33334 28.0001Z" stroke="#0BD938" stroke-width="3" stroke-linecap="round" stroke-linejoin="round"/>
<path d="M19.9997 3.83325C21.5644 3.83325 22.8335 5.1016 22.8337 6.66626C22.8337 8.23107 21.5645 9.50024 19.9997 9.50024C18.435 9.50007 17.1667 8.23096 17.1667 6.66626C17.1668 5.10171 18.4351 3.83343 19.9997 3.83325Z" stroke="#0BD938" stroke-width="3" stroke-linecap="round" stroke-linejoin="round"/>
<path d="M16 23.3334V18.6667L12 14.6667L17.3333 10.6667L20 14.6667H22.6667" stroke="#0BD938" stroke-width="3" stroke-linecap="round" stroke-linejoin="round"/>
</svg>
