<svg width="32" height="32" viewBox="0 0 32 32" fill="none" xmlns="http://www.w3.org/2000/svg">
<g clip-path="url(#clip0_29_73)">
<path d="M16.4155 -0.469422C16.2386 -0.392499 16.0078 -0.207884 15.8924 -0.0694223C15.777 0.0767315 14.9001 1.86904 13.9463 3.92289C12.9924 5.97673 12.077 7.84596 11.9155 8.08442C11.5924 8.56904 11.254 8.88442 10.2309 9.66135L9.53857 10.1921V11.6921C9.53857 13.3613 9.60011 13.6152 10.1001 14.1383C10.577 14.6383 10.8463 14.7229 12.0001 14.7537L13.0386 14.7844L13.4155 13.2537C13.7309 11.9613 13.854 11.5921 14.2386 10.8075C14.8232 9.6075 15.0001 8.93058 15.054 7.61519L15.0924 6.57673L16.0924 4.89981C16.7386 3.8075 17.154 3.19212 17.2693 3.13827C17.6309 2.97673 17.854 3.13058 19.377 4.63827C20.554 5.8075 21.077 6.39212 21.8847 7.46135C22.8463 8.73827 22.954 8.85365 23.7617 9.45365C24.2309 9.8075 24.6309 10.0844 24.6463 10.069C24.6693 10.0306 25.3847 8.23827 25.3847 8.2075C25.3847 8.19212 24.7617 7.68442 23.9924 7.06904L22.6001 5.96135L20.4847 3.03827C19.3155 1.43058 18.2693 0.015193 18.1617 -0.107884C17.7232 -0.592499 17.0078 -0.738653 16.4155 -0.469422Z" fill="white"/>
<path d="M12.4616 1.59976L11.2693 2.04591L11.2924 2.42284C11.3155 2.78437 11.2847 2.84591 10.8847 3.42284C10.6463 3.7613 10.4155 4.09976 10.377 4.16899C10.3232 4.26899 10.4232 4.42284 10.8078 4.88437C11.3155 5.48437 11.3693 5.58437 11.4001 6.11514C11.4232 6.39207 11.5309 6.19207 12.6078 3.88437C13.254 2.48437 13.8078 1.29976 13.8232 1.24591C13.8847 1.09207 13.7232 1.13822 12.4616 1.59976Z" fill="white"/>
<path d="M16.9846 5.78458L16.3308 6.88458L16.2846 7.76919C16.2077 9.18458 15.8769 10.423 15.2769 11.4923C15.1077 11.7923 14.9231 12.323 14.7692 12.923C14.6385 13.4538 14.5154 13.9461 14.4923 14.0153C14.4539 14.1384 14.5231 14.1538 15.2077 14.1538C16.5 14.1538 17.2923 13.8538 18.0308 13.0769C18.9154 12.1538 19.1923 11.0461 18.8462 9.7615C18.7616 9.44612 18.6923 9.03073 18.6923 8.83842C18.6923 8.29996 18.9539 7.55381 19.3154 7.08458L19.6308 6.66919L18.6385 5.67689L17.6385 4.68458L16.9846 5.78458Z" fill="white"/>
<path d="M7.49243 11.7921C6.6232 12.4844 6.36935 12.7691 6.06935 13.4152C5.88474 13.8152 5.8232 14.0691 5.79243 14.5691C5.73089 15.446 5.93089 16.0844 6.50012 16.8768C7.03858 17.6306 7.07704 17.7075 7.07704 17.9998C7.07704 18.1383 7.1232 18.2537 7.19243 18.2844C7.31551 18.3306 12.0924 17.4152 12.3155 17.2998C12.4078 17.2537 12.7001 16.3075 12.6924 16.0537C12.6924 16.0229 12.354 15.9998 11.9386 15.9998C10.2847 15.9998 9.20781 15.3844 8.58474 14.0768C8.36166 13.5998 8.34627 13.5306 8.3232 12.3998C8.30781 11.7614 8.26935 11.2306 8.23858 11.2306C8.21551 11.2383 7.87704 11.4844 7.49243 11.7921Z" fill="white"/>
<path d="M25.0616 11.7844C24.977 11.8537 24.9231 12.0767 24.8924 12.4613C24.8078 13.4229 24.5616 14.2921 24.1155 15.2229C23.4924 16.5075 23.5385 16.7998 24.4616 17.4229L25.0001 17.7998L25.777 17.6152C26.2078 17.5152 26.5693 17.3844 26.5924 17.3306C26.6616 17.1537 25.6847 11.969 25.5539 11.8229C25.4155 11.669 25.2308 11.6537 25.0616 11.7844Z" fill="white"/>
<path d="M9.73084 19.0922C8.46161 19.3384 7.41545 19.5615 7.40007 19.5692C7.35392 19.623 7.96161 21.3845 8.27699 22.0999C8.65392 22.9461 9.43084 24.3076 9.53853 24.3076C9.60007 24.3076 13.3078 21.6384 13.4924 21.4615C13.5308 21.423 13.3462 21.1076 13.0924 20.7538C12.5385 19.9999 12.3155 19.5307 12.2539 18.9999C12.2308 18.7845 12.1693 18.6153 12.1231 18.623C12.077 18.6307 11.0001 18.8384 9.73084 19.0922Z" fill="white"/>
<path d="M26.1462 18.7845L25.5693 18.9306L25.7462 20.6383C26.0462 23.6152 26.3924 24.8768 27.5462 27.3075C27.9847 28.2306 28.0154 28.3152 27.9308 28.5306C27.8693 28.6614 27.7308 28.7998 27.5924 28.8537C27.377 28.946 27.1154 28.8691 23.4693 27.646L19.577 26.346L19.1385 25.5152C18.6 24.4998 18.2693 24.0383 17.7308 23.5614C16.9462 22.8614 15.9154 22.3691 14.9847 22.2614L14.5616 22.2152L12.4308 23.7614C11.2616 24.6152 10.3077 25.346 10.3077 25.3768C10.3077 25.4922 11.5154 26.7998 12.0847 27.3075C14.8231 29.746 17.8308 31.2537 21.2462 31.9152C22.4539 32.146 23.1539 32.2152 26.3 32.3845C29.4308 32.5614 29.6308 32.5537 30.3231 32.1768C30.777 31.9306 31.1539 31.5306 31.4385 30.9845C31.6308 30.6152 31.6539 30.4998 31.6539 29.8075L31.6462 29.0383L29.3462 23.8306C27.377 19.3845 27.0154 18.6152 26.8847 18.6229C26.8 18.6306 26.4693 18.6998 26.1462 18.7845Z" fill="white"/>
<path d="M2.30776 25.969C1.92315 26.1382 1.62315 26.4382 1.41546 26.8844C1.02315 27.7151 1.27699 28.4382 2.17699 29.0613C2.81546 29.4998 3.96161 30.0998 4.60776 30.3151L5.03853 30.469L5.14623 30.2921C5.20776 30.1921 5.43853 29.9382 5.65392 29.7228C6.24623 29.1382 6.6693 28.9998 7.93084 28.9998C8.47699 28.9998 9.40776 28.9459 9.98469 28.8767C10.5616 28.8075 11.2308 28.769 11.4693 28.7844L11.9001 28.8151L10.9847 27.9305C10.477 27.4459 9.83853 26.7767 9.5693 26.4459L9.06161 25.8459H5.82315C3.10007 25.8536 2.53084 25.869 2.30776 25.969Z" fill="white"/>
<path d="M13.077 29.9382C13.1616 30.1228 13.2308 30.4228 13.2308 30.6074C13.2308 30.8382 13.2616 30.9305 13.3308 30.9074C13.377 30.8844 13.6077 30.8074 13.8308 30.7382C14.0462 30.6613 14.2308 30.5767 14.2308 30.5459C14.2308 30.4998 13.5616 30.0151 13.0231 29.669C12.9693 29.6382 12.9923 29.7459 13.077 29.9382Z" fill="white"/>
<path d="M9.9232 30.123C9.5232 30.1769 8.71551 30.223 8.1232 30.223C7.17705 30.2307 7.0232 30.2461 6.75397 30.4C6.4232 30.5846 6.00012 31.2 6.00012 31.4923C6.00012 31.8461 6.06935 31.8538 8.55397 31.8307L10.8847 31.8076L11.2847 31.6C11.7847 31.3307 12.0001 31.0615 12.0001 30.6923C12.0001 30.4846 11.9463 30.3461 11.8001 30.2C11.6155 30.023 11.5386 30 11.1232 30.0076C10.8694 30.0153 10.3232 30.0615 9.9232 30.123Z" fill="white"/>
</g>
<defs>
<clipPath id="clip0_29_73">
<rect width="32" height="32" fill="white"/>
</clipPath>
</defs>
</svg>
