<svg width="32" height="32" viewBox="0 0 32 32" fill="none" xmlns="http://www.w3.org/2000/svg">
<path d="M16.3375 2.6187C16.1938 2.6812 16.0063 2.8312 15.9125 2.9437C15.8188 3.06245 15.1063 4.5187 14.3313 6.18745C13.5563 7.8562 12.8125 9.37495 12.6813 9.5687C12.4188 9.96245 12.1438 10.2187 11.3125 10.85L10.75 11.2812V12.5C10.75 13.8562 10.8 14.0625 11.2063 14.4875C11.5938 14.8937 11.8125 14.9625 12.75 14.9875L13.5938 15.0125L13.9 13.7687C14.1563 12.7187 14.2563 12.4187 14.5688 11.7812C15.0438 10.8062 15.1875 10.2562 15.2313 9.18745L15.2625 8.3437L16.075 6.9812C16.6 6.0937 16.9375 5.5937 17.0313 5.54995C17.325 5.4187 17.5063 5.5437 18.7438 6.7687C19.7 7.7187 20.125 8.1937 20.7813 9.06245C21.5625 10.1 21.65 10.1937 22.3063 10.6812C22.6875 10.9687 23.0125 11.1937 23.025 11.1812C23.0438 11.15 23.625 9.6937 23.625 9.6687C23.625 9.6562 23.1188 9.2437 22.4938 8.7437L21.3625 7.8437L19.6438 5.4687C18.6938 4.16245 17.8438 3.01245 17.7563 2.91245C17.4 2.5187 16.8188 2.39995 16.3375 2.6187Z" fill="#AF36FF"/>
<path d="M13.125 4.2999L12.1563 4.6624L12.175 4.96865C12.1938 5.2624 12.1688 5.3124 11.8438 5.78115C11.65 6.05615 11.4625 6.33115 11.4313 6.3874C11.3875 6.46865 11.4688 6.59365 11.7813 6.96865C12.1938 7.45615 12.2375 7.5374 12.2625 7.96865C12.2813 8.19365 12.3688 8.03115 13.2438 6.15615C13.7688 5.01865 14.2188 4.05615 14.2313 4.0124C14.2813 3.8874 14.15 3.9249 13.125 4.2999Z" fill="#AF36FF"/>
<path d="M16.8 7.7L16.2688 8.59375L16.2313 9.3125C16.1688 10.4625 15.9 11.4688 15.4125 12.3375C15.275 12.5812 15.125 13.0125 15 13.5C14.8938 13.9312 14.7938 14.3312 14.775 14.3875C14.7438 14.4875 14.8 14.5 15.3563 14.5C16.4063 14.5 17.05 14.2562 17.65 13.625C18.3688 12.875 18.5938 11.975 18.3125 10.9312C18.2438 10.675 18.1875 10.3375 18.1875 10.1813C18.1875 9.74375 18.4 9.1375 18.6938 8.75625L18.95 8.41875L18.1438 7.6125L17.3313 6.80625L16.8 7.7Z" fill="#AF36FF"/>
<path d="M9.08757 12.5811C8.38132 13.1436 8.17507 13.3748 7.93132 13.8998C7.78132 14.2248 7.73132 14.4311 7.70632 14.8373C7.65632 15.5498 7.81882 16.0686 8.28132 16.7123C8.71882 17.3248 8.75007 17.3873 8.75007 17.6248C8.75007 17.7373 8.78757 17.8311 8.84382 17.8561C8.94382 17.8936 12.8251 17.1498 13.0063 17.0561C13.0813 17.0186 13.3188 16.2498 13.3126 16.0436C13.3126 16.0186 13.0376 15.9998 12.7001 15.9998C11.3563 15.9998 10.4813 15.4998 9.97507 14.4373C9.79382 14.0498 9.78132 13.9936 9.76257 13.0748C9.75007 12.5561 9.71882 12.1248 9.69382 12.1248C9.67507 12.1311 9.40007 12.3311 9.08757 12.5811Z" fill="#AF36FF"/>
<path d="M23.3626 12.5749C23.2938 12.6312 23.2501 12.8124 23.2251 13.1249C23.1563 13.9062 22.9563 14.6124 22.5938 15.3687C22.0876 16.4124 22.1251 16.6499 22.8751 17.1562L23.3126 17.4624L23.9438 17.3124C24.2938 17.2312 24.5876 17.1249 24.6063 17.0812C24.6626 16.9374 23.8688 12.7249 23.7626 12.6062C23.6501 12.4812 23.5001 12.4687 23.3626 12.5749Z" fill="#AF36FF"/>
<path d="M10.9063 18.5125C9.87502 18.7125 9.02502 18.8938 9.01252 18.9C8.97502 18.9438 9.46877 20.375 9.72502 20.9563C10.0313 21.6438 10.6625 22.75 10.75 22.75C10.8 22.75 13.8125 20.5813 13.9625 20.4375C13.9938 20.4063 13.8438 20.15 13.6375 19.8625C13.1875 19.25 13.0063 18.8688 12.9563 18.4375C12.9375 18.2625 12.8875 18.125 12.85 18.1313C12.8125 18.1375 11.9375 18.3063 10.9063 18.5125Z" fill="#AF36FF"/>
<path d="M24.2438 18.2624L23.775 18.3812L23.9187 19.7687C24.1625 22.1874 24.4438 23.2124 25.3813 25.1874C25.7375 25.9374 25.7625 26.0062 25.6938 26.1812C25.6438 26.2874 25.5312 26.3999 25.4187 26.4437C25.2438 26.5187 25.0312 26.4562 22.0688 25.4624L18.9062 24.4062L18.55 23.7312C18.1125 22.9062 17.8438 22.5312 17.4062 22.1437C16.7688 21.5749 15.9313 21.1749 15.175 21.0874L14.8312 21.0499L13.1 22.3062C12.15 22.9999 11.375 23.5937 11.375 23.6187C11.375 23.7124 12.3562 24.7749 12.8188 25.1874C15.0438 27.1687 17.4875 28.3937 20.2625 28.9312C21.2438 29.1187 21.8125 29.1749 24.3688 29.3124C26.9125 29.4562 27.075 29.4499 27.6375 29.1437C28.0063 28.9437 28.3125 28.6187 28.5438 28.1749C28.7 27.8749 28.7188 27.7812 28.7188 27.2187L28.7125 26.5937L26.8438 22.3624C25.2438 18.7499 24.95 18.1249 24.8438 18.1312C24.775 18.1374 24.5063 18.1937 24.2438 18.2624Z" fill="#AF36FF"/>
<path d="M4.87503 24.0999C4.56253 24.2374 4.31878 24.4811 4.15003 24.8436C3.83128 25.5186 4.03753 26.1061 4.76878 26.6124C5.28753 26.9686 6.21878 27.4561 6.74378 27.6311L7.09378 27.7561L7.18128 27.6124C7.23128 27.5311 7.41878 27.3249 7.59378 27.1499C8.07503 26.6749 8.41878 26.5624 9.44378 26.5624C9.88753 26.5624 10.6438 26.5186 11.1125 26.4624C11.5813 26.4061 12.125 26.3749 12.3188 26.3874L12.6688 26.4124L11.925 25.6936C11.5125 25.2999 10.9938 24.7561 10.775 24.4874L10.3625 23.9999H7.73128C5.51878 24.0061 5.05628 24.0186 4.87503 24.0999Z" fill="#AF36FF"/>
<path d="M13.625 27.3249C13.6938 27.4749 13.75 27.7187 13.75 27.8687C13.75 28.0562 13.775 28.1312 13.8313 28.1124C13.8688 28.0937 14.0563 28.0312 14.2375 27.9749C14.4125 27.9124 14.5625 27.8437 14.5625 27.8187C14.5625 27.7812 14.0188 27.3874 13.5813 27.1062C13.5375 27.0812 13.5563 27.1687 13.625 27.3249Z" fill="#AF36FF"/>
<path d="M11.0625 27.4749C10.7375 27.5187 10.0812 27.5562 9.6 27.5562C8.83125 27.5624 8.70625 27.5749 8.4875 27.6999C8.21875 27.8499 7.875 28.3499 7.875 28.5874C7.875 28.8749 7.93125 28.8812 9.95 28.8624L11.8438 28.8437L12.1688 28.6749C12.575 28.4562 12.75 28.2374 12.75 27.9374C12.75 27.7687 12.7063 27.6562 12.5875 27.5374C12.4375 27.3937 12.375 27.3749 12.0375 27.3812C11.8312 27.3874 11.3875 27.4249 11.0625 27.4749Z" fill="#AF36FF"/>
</svg>
