<svg width="32" height="32" viewBox="0 0 32 32" fill="none" xmlns="http://www.w3.org/2000/svg">
<path d="M15.6688 0.112497C15.5938 0.193747 15.5625 0.343748 15.5625 0.599997C15.5625 1.11875 15.4563 1.63125 15.2438 2.2C14.925 3.01875 14.5563 3.5 13.4438 4.5625C12.125 5.8125 10.5188 7.56875 10.3563 7.9375C10.2313 8.2125 10.2313 8.2625 10.3 9.6875C10.4563 12.7625 10.7875 14.825 11.4688 16.9375C12.3563 19.6812 12.6875 21.4625 12.6938 23.5C12.6938 24.2812 12.6688 24.5625 12.5688 24.9687C12.4063 25.5875 12.1125 26.1875 11.8063 26.5C11.5125 26.8062 11.2188 26.8937 9.71877 27.125C8.38127 27.3312 7.83127 27.4812 7.26877 27.7875C6.41877 28.2625 5.89377 29.1812 6.05002 29.925C6.15627 30.4312 6.36252 30.8062 6.73127 31.175C7.25002 31.7 8.07502 31.9937 9.00002 32C9.47502 32 10.775 31.8375 12.4875 31.5687C13.2188 31.45 14.1563 31.35 14.85 31.3125C16.3813 31.2312 17.9563 31.3187 19.5125 31.5687C21.225 31.8375 22.525 32 23 32C24.4688 31.9937 25.575 31.275 25.9063 30.1062C26.225 29 25.3938 27.8937 23.9063 27.4375C23.6688 27.3687 22.9375 27.225 22.2813 27.125C21.6313 27.025 20.9438 26.8937 20.7625 26.8375C20.1688 26.6625 19.7063 26 19.4313 24.9562C19.3313 24.5625 19.3063 24.2812 19.3063 23.5C19.3125 21.4625 19.6438 19.6812 20.5313 16.9375C21.2125 14.825 21.5438 12.7625 21.7 9.6875C21.7688 8.2625 21.7688 8.2125 21.6438 7.9375C21.4813 7.56875 19.875 5.8125 18.5563 4.5625C17.4438 3.5 17.075 3.01875 16.7563 2.2C16.5375 1.63125 16.4375 1.11875 16.4375 0.593748C16.4375 0.299997 16.4125 0.181248 16.325 0.106247C16.1688 -0.0375023 15.7938 -0.0312538 15.6688 0.112497ZM16.85 4.8625C17.9375 6.31875 18.825 7.69375 19.2063 8.49375L19.5188 9.14375L19.475 9.85625C19.3938 11.1687 19.0563 12.675 18.6688 13.4062C18.4063 13.9062 17.8875 14.4375 17.675 14.4375C17.525 14.4375 17.1875 14.1375 17.1875 14.0125C17.1875 13.9875 17.3313 13.825 17.5063 13.6562C17.875 13.2875 18.2063 12.65 18.3188 12.075C18.4125 11.5812 18.3563 10.2812 18.225 9.84375C18.05 9.275 17.8125 8.975 17.3375 8.74375C16.9125 8.53125 16.9063 8.53125 16 8.53125C15.0938 8.53125 15.0875 8.53125 14.6625 8.74375C14.1875 8.975 13.95 9.275 13.775 9.84375C13.6438 10.2812 13.5875 11.5812 13.6813 12.075C13.7938 12.65 14.125 13.2875 14.4938 13.6562C14.6688 13.825 14.8125 13.9875 14.8125 14.0125C14.8125 14.1375 14.475 14.4375 14.325 14.4375C14.1125 14.4375 13.5938 13.9062 13.3313 13.4062C12.9438 12.675 12.6063 11.1687 12.525 9.85625L12.4813 9.14375L12.7938 8.49375C12.9625 8.1375 13.375 7.41875 13.7125 6.90625C14.3 6.0125 15.9313 3.75625 16 3.75625C16.0188 3.75625 16.4 4.25 16.85 4.8625Z" fill="white"/>
</svg>
