<svg width="20" height="20" viewBox="0 0 20 20" fill="none" xmlns="http://www.w3.org/2000/svg">
<path d="M13.3335 1.66666V3.33333" stroke="white" stroke-width="2" stroke-linecap="round" stroke-linejoin="round"/>
<path d="M5.8335 18.3333V16.6667C5.8335 16.2246 6.00909 15.8007 6.32165 15.4882C6.63421 15.1756 7.05814 15 7.50016 15H12.5002C12.9422 15 13.3661 15.1756 13.6787 15.4882C13.9912 15.8007 14.1668 16.2246 14.1668 16.6667V18.3333" stroke="white" stroke-width="2" stroke-linecap="round" stroke-linejoin="round"/>
<path d="M6.6665 1.66666V3.33333" stroke="white" stroke-width="2" stroke-linecap="round" stroke-linejoin="round"/>
<path d="M10 11.6667C11.3807 11.6667 12.5 10.5474 12.5 9.16666C12.5 7.78595 11.3807 6.66666 10 6.66666C8.61929 6.66666 7.5 7.78595 7.5 9.16666C7.5 10.5474 8.61929 11.6667 10 11.6667Z" stroke="white" stroke-width="2" stroke-linecap="round" stroke-linejoin="round"/>
<path d="M15.8333 3.33334H4.16667C3.24619 3.33334 2.5 4.07953 2.5 5V16.6667C2.5 17.5871 3.24619 18.3333 4.16667 18.3333H15.8333C16.7538 18.3333 17.5 17.5871 17.5 16.6667V5C17.5 4.07953 16.7538 3.33334 15.8333 3.33334Z" stroke="white" stroke-width="2" stroke-linecap="round" stroke-linejoin="round"/>
</svg>
